<svg width="511.28900000000004" height="511.28900000000004" xmlns="http://www.w3.org/2000/svg">

 <g>
  <title>background</title>
  <rect fill="none" id="canvas_background" height="602" width="802" y="-1" x="-1"/>
 </g>
 <g>
  <title>Layer 1</title>
  <metadata stroke="null" transform="translate(0.35087716579437256,0) matrix(0.14475287647592042,0,0,0.16349092332357285,306.30360712788024,221.2196707833744) ">2005-04-19T17:04:57Z2005-04-19T18:04:24ZIllustrator224256JPEG/9j/4AAQSkZJRgABAgEASABIAAD/7QAsUGhvdG9zaG9wIDMuMAA4QklNA+0AAAAAABAASAAAAAEA
AQBIAAAAAQAB/+4ADkFkb2JlAGTAAAAAAf/bAIQABgQEBAUEBgUFBgkGBQYJCwgGBggLDAoKCwoK
DBAMDAwMDAwQDA4PEA8ODBMTFBQTExwbGxscHx8fHx8fHx8fHwEHBwcNDA0YEBAYGhURFRofHx8f
Hx8fHx8fHx8fHx8fHx8fHx8fHx8fHx8fHx8fHx8fHx8fHx8fHx8fHx8fHx8f/8AAEQgBAADgAwER
AAIRAQMRAf/EAaIAAAAHAQEBAQEAAAAAAAAAAAQFAwIGAQAHCAkKCwEAAgIDAQEBAQEAAAAAAAAA
AQACAwQFBgcICQoLEAACAQMDAgQCBgcDBAIGAnMBAgMRBAAFIRIxQVEGE2EicYEUMpGhBxWxQiPB
UtHhMxZi8CRygvElQzRTkqKyY3PCNUQnk6OzNhdUZHTD0uIIJoMJChgZhJRFRqS0VtNVKBry4/PE
1OT0ZXWFlaW1xdXl9WZ2hpamtsbW5vY3R1dnd4eXp7fH1+f3OEhYaHiImKi4yNjo+Ck5SVlpeYmZ
qbnJ2en5KjpKWmp6ipqqusra6voRAAICAQIDBQUEBQYECAMDbQEAAhEDBCESMUEFURNhIgZxgZEy
obHwFMHR4SNCFVJicvEzJDRDghaSUyWiY7LCB3PSNeJEgxdUkwgJChgZJjZFGidkdFU38qOzwygp
0+PzhJSktMTU5PRldYWVpbXF1eX1RlZmdoaWprbG1ub2R1dnd4eXp7fH1+f3OEhYaHiImKi4yNjo
+DlJWWl5iZmpucnZ6fkqOkpaanqKmqq6ytrq+v/aAAwDAQACEQMRAD8A9U4q7FXYq7FXYq7FXYq7
FXYq7FXYq7FWA/npcMn5a6jaxScLvUJbWzswKgtLJcxniCP8hWOZWjH7wHutw9cf3RHfX3pd+Un5
kzalPdeTPMcoXzXoryW5kYn/AEyOBihkUnrIvH4x1P2v5uM9XpuH1x+k/pa9HquL0S+qO3vr9L0/
MJ2DsVdirsVdirsVdirsVdirsVdirsVdirsVdirsVdirsVdirsVdirsVdirsVdirsVea/mXL+lvP
PkfypEQ3+nHWr5R9pIrFSYuXbjIxdfmMzNP6YSl5V83B1J4skIed/L8F5D+dNld6V+Z93qGnSta3
ytDe2dwmzK5Ran/g1ObzRQGXTgHpYef18zh1RI5Gi9r/ACm/NKx876SYp+Nt5isVA1Kx6V7evFXr
Gx6/ynY/sltDqtKcUvJ6LR6sZo/0vxuz3MVzHYq7FXYq7FXYq7FXYq7FXYq7FXYq7FXYq7FXYq7F
XYq7FXYq7FXYq7FXYqo317aWNnPe3kqwWltG0s8zmioiDkzH5AYYxJNBEpACzyebflXDeeZfMWs/
mRfRvFDqI+oeXoJKhk0+Ft34ksB6jqCaftcqbHMzUkQiMY6c/e4OlBnI5T12Hued/wDOQXA+elIN
WFpErD5FiP15vOx/7n4vP9t/3/wDzWxvtU0jVLfWdGnNrqlm3KKVejDoUYHYqw2IOxGZmp04yBwd
LqTilb6l/K780tK88aWacbTXLVR+kNOJ3Hb1Yq7tGT/wJ2PYnk9TpjiPk9lpNXHLH+kzjMZy3Yq7
FXYq7FXYq7FXYq7FXYq7FXYq7FXYq7FXYq7FXYq7FXYq7FXYqg9X1jS9H06fUtUuY7Oxt15TTymi
geHuT0AG5OwyUIGRoc2M5iIsmg8yePW/zauovUim0r8t4XEhR6x3OrOhqtQN0twRUePXrThmXHAO
/J934/Hng1LUHux/7r9n493SLy803QtMjRUWGCBBFa2sYCiiCioqjoAPuzFhAzk5eTJHHF8peftf
bXfNF3fc+aA+nGw6EKTWntyJp7Z2Okw+HjAeH1ufxMhkx7MlxW7S51DTtRg1XSbl7HVLVuUFzGaH
pQhuxBGxB2I2O2Y+fTxyCi5On1MsZsPe/wAvP+chdI1IRaX5vCaRq1OK3x2s5zUAHkf7ljXfl8O3
2hsuc3qezpQPp5fj5vU6TtOGQVLY9/45PYo5I5I1kjYPG4DI6moIO4II6g5rXagt4q7FXYq7FXYq
7FXYq7FXYq7FXYq7FXYq7FXYq7FXYq7FXYqwvzN+aOlabqB0PRLeTzF5nNQuk2JB9Mg0JuZt0hVT
9qu47im+ZGPTEjil6Y97i5NUAeGPql3D9KW6X+W+ra7qEOu/mLdJqV1F8dloEFRptofEoSfWfxZv
l8W1Jy1AiOHHsO/qWENMZHiyGz3dAyvzDrN9pkI+q2lY6AfWDT017AcV3++mQwYhM7lsz5pQGweM
fmjqnmKbTPrMc5MLHhfPWjhGoFVewQk0NP65vdBjgJVXued7RyZDG726vIs3Lo3Yq7FVkkUcqlJF
DKexyMog7FMZEGwnvlLz7528nOBod+ZbAGraVd1ltz1J4ioKVJ/YK175r9R2dCbs9L2pPHt0+z8e
57V5P/5yN8qaoyWnmGJ9A1BqLzkrJaOSQNpVFUqST8a8QP2s0efs6cOW70Gn7Uxz57fc9Wtbq1u7
eO5tZkuLaZQ8U0TB0dT0KspII+WYBBBouyBBFhVwJdirsVdirsVdirsVdirsVdirsVdirsVdirsV
Yn5r/M3yx5duV05nk1LXZTxg0TT1+sXbMQCAyLsmxr8ZG3SuX49PKQvlHvLj5dTGBrnLuDHzoP5m
+dW5eYLz/CXl9+ui6dIHvpUI+zPdAUQGvRO2xWu+W8ePH9I4pd55fJp8PLl+o8Ee4c/mzXyz5S8u
eWLAWOh2MdnBt6hQVkkI/akkNXc/6xzHyZZTNyLlY8UYCoik3ytsSHzlfxQaS1sTWa5IVV/yVILH
+GZOlgTK+5xdXMCFd7w38zdWjg0lNOU1mu2DMvhHGeVT82Ap9OdBocdy4u55rtDJUeHveYZtXTux
V2KuxV2KrXjSReLqGU9jvgIB5pEiOSYeW/Mvmryrcev5c1KS0UnlLZOfUtpO3xRNVa070r4EZg59
BCYc/T9ozxnm9w8if85FaJqkkeneaoV0TUn+FbqpNlIf9diTF/siV/ys0Op7OnDlv+Ptej0vakMn
1bfd+x7Ajq6h0IZGAKsDUEHoQc1ztG8VdirsVdirsVdirsVdirsVdirsVQWs61pOi6dNqWq3UdnY
wDlLPKaD5DuzHso3J2GShAyNDmwnMRFk0Hmo13z/APmPJw8uer5W8nE/Frkq0vrte/1VP91qez19
+XVczODHi+r1T7ugcLjyZvp9EO/qWa+TvIHlfyjamLR7QLPL/vTfSn1LmY+Mkp3678RRfbMbLnlM
7uVh08MY9IZFlTc7FUHquq2um2pnnO/SOMfaZvAZZjxmZoNeXKICy8r80+Z0ijn1XUXoBtHGO/8A
LGg/z8c3GnwcoxdHqdRVyk8N1jVrrVdQlvbk/HIfhQdEUfZUewzfY8YhGg85lyGcrKCyxrdirsVd
irsVdirsVWSxRyoUkUMp7HIyiCKKYyINhlXkP80/NfkZ0ghY6r5fB+PS52NYgTyLW77lD12+zudq
75qtX2bGe45/j5u50XakobHl+Pk+mvJ3nfy55v0sajolz6qCgnt3os0LkfYlSp4nbr0PYnOdy4ZY
zRenw545BcU+ypudirsVdirsVdirsVdirsVY753886R5R01Lm953F7dN6OmaZAOVxdTGlEjQVPUj
k1KCo7kA3YcJmduXUtOfOMY35nkO9imjfl/rPmnUYfM35jcZZI/i0vyuhraWineswqRLKf2q/TUU
C3TziA4cfxPe48NPLIePL8I9A9NACgKooBsAOgGYbnOxV2KoDWNatNLg9SY8pG/uoR9pj/Ae+WYs
RmdmrLmEBu8x8y+ZlCS6nqkoSJBRVHQeCIvic2+DB/DF0uo1H8UninmXzJea5e+rL+7t46i3twdl
B7nxY9zm9wYRjFdXns+c5DZ5JRlzQ7FXYq7FXYq7FXYq7FXYq7FVfRdY1vy5qyaz5fuTaX6Aq6je
OZCatHIh2ZTTv336gHMPU6SOQcnN0uslilzfUP5Yfmpo/njT2VQLPXLVa3+mM1WUVp6kZNOcZJ6/
snY9ieW1OlliPk9fpdXHMNubN8xnLdirsVdirsVdirsVY356872XlTTI5mha+1W9f0NJ0qHea5nP
RVAqeK1HNqbfMgG7DhMz3Acy0Z84xjvJ5BJvIvkLUIdQk83ecJFvvN96tFUbwWEJ6W9sNwKV+Jh9
53Zp5swI4IbRH2teDAQeOe8z9jPcxnLdirsVY/rvmy2seUFrSe7Gx/kQ+5HU+wzJw6Yy3OwcTNqh
HYbl5r5l8021jG99qc5knk+xHsXc+CjwH3DNrgwGW0Q6fUakR9Uju8f8w+Y7/W7v1rg8IV/uLdSe
CD+LeJzdYcIxig6HPnlkNlKsuaXYq7FXYq7FXYq7FXYq7FXYq7FXYq3aXepaZqVvq+kXDWeq2bc7
e4T7irA7MrDYg7EbHbMfUacZBRcnTamWOQIL6o/Kz8zLDzxoplKi21qzCpqliK0Vz0kjqSfTehpX
cdD4nktVpjilXR7PSaoZo31ZtmM5bsVdirsVdiqU+afM+leWdDuNY1NytvAKJGorJLI2yRRr+07n
YfedqnLMWMzlQa8uUY48RYv5B8q6jdag/nnzWofzJfpxsrU7pp1o1SkEVf2yG+Nvc+JrfnyADgj9
I+0uPp8RJ8Sf1H7Az7MRzHYqhr/UrKwh9W6lEa/sr1Zj4KOpycIGRoMJ5IxFlhWs+bry95Q21ba2
OxofjYe5HT5DM/FphHc7l1ubVGWw2DzXzN59sdMDW1lxur4VBANY4z/lEdT7DNrg0hnudg6fUa2M
No7yeYahqN7qF011eStNM/Vj2HgB0A9hm0hARFB1E5mRs80Pk2DsVdirsVdirsVdirsVdirsVdir
sVdirsVV9H8w6t5X1y18w6O/C7tmpNGa8Joj9qKQDqrf2jcDMHW6cZI7ufoNTLHLZ9feTfNulebP
L1rremPWG4FJIiQXilXZ4nHZlP3ihGxGcnlxmEqL2eHKMkeIJ1lba7FXYq7FXi8OuW/5gfmFDeu3
PyloVyINKjagjubsf3t038yj7MftvsSc2kcRxYz/ADiHUSyjNlH8wF7RmrduhrzUrCzXldTpF7E/
Efko3OTjCUuQYTyRjzLGdT887GPTo6dvXlH/ABFf6/dmXj0n85wsmt/msH1/zLaWSm71W7/eN9lW
PKR6dlXr/AZsMOAy2iHW59QI7yLzHzH+YGo6lyt7KtnZHY0P71x/lMOnyH45tMOkjHc7l0+fWyns
NgxXMxwnYq7FXYq7FXYq7FXYq7FXYq7FXYq7FXYq7FXYqpXK8oHHsT92+QmNizgakGVfkr+YzeTf
NC297KV8v6syxXoP2YZekdwPDj0f/J8aDNHrtNxxscw9B2fquCVH6S+us0D0jsVdiryj/nIPz2+h
+Wk0DT5Aura8GhalC0VpSkznuOdeC7fzU3XM/s/T8c77vvdb2lqfDhXU/d+1j/kyzt7PytpkFv8A
YECOSP5pBzf/AIZjmxzCpEOtwG4AslOr6qUCG8m4AU4+o3T78x/Cj3ByPFn3lKNT1nTtPjM1/cpC
DuOZqzfJRVm+jLoY5S2iGjJljHeRYLrn5nTPyh0eL0l6fWpQC3zVOg+mvyzYYtCOcnW5u0CdoMIu
bq5upmnuZWmmfdpHJYn6TmdGIAoOulIk2VLJIdirsVdirsVdirsVdirsVdirsVdirsVdirsVdirs
VWS/3T/6p/VkZckx5hJmUMpU9DmCRbsAafU3/OPfnxvMPlL9D3snLVdCCwMSd5LYgiB/9iF4H5An
rnPa7BwTvoXp+z9Rxwo8w9VzCc9xIUEk0A3JPQDFXxt5281SebvOepa8WLWZf6tpaGtFtYiQlASe
PP7bD+YnOt7P0/BB4vtPU+JP8fBW0fznrulW4treVXt1rwilXkFruaHY/jmTk00JmzzcXFqpwFDk
q3nn7zPcqV+tCBT1EKhT/wAFuw+/BHSYx0TPWZD1pIZppppGlmkaWRt2dyWY/MnMgADk4xJO5WYU
OxV2KuxV2KuxV2KuxV2KuxV2KuxV2KuxV2KuxV2KuxV2KqN03G3c+Ip9+2QyH0lnjFyCVZhuayr8
rfN58p+etO1SR+FhM31TUt6D6vMQCzdf7tuL/wCxzE1mHjge9zdDn8OYPR9oZzb1Tz/89fMz6D+X
GoGElbvVCum2xAB3uAfUr4fuVkofGmZeix8WQeW7h6/LwYj57fj4PlyCIRQpGOiin0987GEaFPDT
lxElUyTF2KuxV2KuxV2KuxV2KuxV2KuxV2KuxV2KuxV2KuxV2KuxV2KuxV2KoPUXoip4mp+jKMx2
pvwDe0BmO5K115IV8cBFhINF9ifkv5pPmP8ALvS7qV+d5aJ9RvDuT6lvRQWJ6s8fBz885nVY+DIQ
9Zo8vHjB7tnlv/OS+sG6816Hoa0MdhbPey0NfjnfgoYdiohqP9bNp2Pi5n8bf2uo7by1UfL7/wCx
5VnRPMuxV2KuxV2KuxV2KuxV2KuxV2KuxV2KuxV2KuxV2KuxV2KuxV2KuxV2KpTdS+pMzDoNl+Qz
DySsubjjQUsgzdir3T/nFjXWS+17y87MVkSPULdK/CpU+lMaeLc4/uzTdp4+Une9k5OcWD/mdqQ1
T80fMt2BxWG4WyUVr/vKghb72jrm17LhWMe7793T9r5OLKff92zHs2bqnYq7FXYq7FXYq7FXYq7F
XYq7FXYq7FXYq7FXYq7FXYq7FXYq7FXYqhr2f04+A+2/4DKss6FNuKFm0tzFct2KuxVnP5HaqNN/
NTRmZykN561nLT9r1Ym9Nf8AkaEzB18Lxl2HZs6yhIJb+XUtS1LU5TWW/vJ7mQ7btK5Y9AB1ObPS
Q4YU6rWz4slt5lOI7FXYq7FXYq7FXYq7FXYq7FXYq7FXYq7FXYq7FXYq7FXYq7FXYqsllWJC7dug
8TkZSoWyjEk0lMkjSOXbqcw5GzbmxjQpbgS7FXYqmXle/XTvNeh6gwqtnqFrMw6VWOZWI6HsMp1E
bgQ5GmlwzB81ul/7wxnuSxP/AARzP0/0B12o+sovLmh2KuxV2KuxV2KuxV2KuxV2KuxV2KuxV2Ku
xV2KuxV2KuxV2KrXdUUsxoBgJpIBJSu4naZ6nZR9kZiTnxFzIQ4QpZBm7FXYq7FVkrFFDjqrBhT2
ORnyZw5pnpX+8EX+y/4kcy9P9AcLUfWUXlzS7FXYq7FXYq7FXYqitM0nU9Vu0s9NtZbu6f7MUKl2
p4mnQe5yGTJGAuRoM8eOUzURZeo+Xv8AnHbzBdosut3sWmqdzbxj6xL8mIKxj6GbNRm7ZgNoDi+x
3WDsLJLeZ4ftZrZf849eR4U/0ia9unpuWlRBX2CIv6zmDLtnMeVB2MOw8I5mRRc35C/l5ItEt7iI
0pVJ2Jr4/Hy3yA7Xz94+TM9i6c9D80g1b/nG7R5FZtJ1ae3fqEukSZT7VT0iPuOZGPtuX8UQfd+C
4uXsCB+iRHv3/U848y/k/wCeNBVppLP69aLubiyJlAH+UlBIPnxpm0wdpYcm10fN1Oo7LzYt64h5
fi2FZnuudirsVdirsVdiqySRI15OaDBKQHNMYknZLLi4eZt9lHRcxJzMnMhARUsgzdiqc6D5N81a
/U6NpVzeoDRpY4z6QPgZDRAfmcqyZoQ+o03Y8E5/SCUXrX5b+etFga41LRLqG3QVknCepGo8WePm
q/ScjDU45bAhlk0uWAsxLG8vcdTuP7pvo/XkZ8mcOabWUTwrLbuKPBLJGw8Crb5laY3FxNUKmicv
cd2KuxV2KuxV2Ksz/Ln8stV843nME2ujwNS6viK1PX04gftP+C9T2Bwdbro4B3y7nYaDs+WoPdAc
z+p9K+WfKmg+WrAWWkWqwJQerL1llYftSP1Y/q7ZyufUTyyuRew0+mhhjwwFJvlLe7FXYq7FXYqw
vzp+U3lXzQrzvD9Q1RqkX9uoDFv+LU2WT6fi98z9L2hkxbc49xddq+zMWbeuGXeP0975786/l15k
8pXFL+H1bJzSDUIatC/gCf2G/wAlvornSaXW48w9PPueV1egyYD6ht39GMZluG7FXYqpT3EcK77s
ei5CcxFnCBklk0zytyY/IdhmLKRLlxiI8lmRZJjoPl3Wtf1FNO0e0kvLuTcJGNlHdnY0VVHixpkM
mSMBcjQbMeKUzURZfQ3kD/nHbRNKEd95oZNV1AUYWa1+qRnwYGhlP+tRfY9c02o7RlLaGw+13um7
LjHefqP2ftewQwwwRJDCixRRgLHGgCqqjoABsBmtJt2oFL+uxwJfPP5//lXY6fAfNuhwCC3LhNVt
YxRFaRqLOo/Z5MQrAdyD45uez9WZeiXwdF2noxEeJH4/reEtGZSkQFTI6qB7k0zZzOzqMY3Zp55s
JdO/MPzRZSoIz+kJbhEGw9O5YzR0H+o4yXZs7xj4I7Uhw5T7ylGbB1rsVdirsVdiqfeSPKV75q8w
2+k21URv3l1PSoihUjm/40HuRmNqtQMMDI/guTo9Mc2QQHx9z610bR9O0bTLfTdOhEFpbKEjRfxY
nuzHcnuc47LklORlLmXusWKOOIjEUAjMrbHYq7FXYq7FXYq7FVK6tLW7tpLa6hSe3lHGWGRQ6Mp7
FTscMZGJsbFjKIkKIsPDvzD/ACGlh9XU/KamWLdpdJY1de59Bj9of5B38CemdBo+1gfTk+f63m9d
2KR6sX+l/U8YljkikaOVTHIhKujAhlI2IIPTN4Dbz5FbIG4vlWqxbt/N2GVTy1yboYb5oFmZiSxq
T1JzHJtyQKawK9J/Lj8kPMXmsxX99y0vQmowuZF/ezL1/cIex/nbbw5dMwdTro49hvJ2Gl7Pnl3O
0fxyfTHlXyf5f8raaun6LarbxbGWU/FLK380jndj+A7UGaPLmlkNyL0OHBDGKiE5ypudirsVS7zH
o8OtaBqOkzAFL63kgqexdSFb/YnfJ458MhLua8sOOJj3h8X+TNP+u+ePL+nyoeM2pWyTJ0IQTLz6
+C1zpNTKoE+TyuljeQDzD0X/AJyG0Y6f+ZEGpKjCDWrJC0h+yZ7f92yqf8mNY6/PKex8u1fjvcjt
vFUuLv8A7P1PPM3rzzsVdirsVdir6N/5x/8ALEdh5Wk1qRP9L1aQ8GPUW8JKKPpcMffbOY7Yz8WT
g6R+963sTT8OLjPOX3B6lmod07FXYq7FXYq7FXYq7FXYq7FWF+ffyn8secYmkuUNlqdKJqNuAHNO
glX7Mg+e/gRmZp9bkxbA3HucLU6DHl3IqXe8C8y/kB+YGkTObO2XWLMH4J7Rhzp25QsQ9f8AV5D3
za4u0McuZouly9m5Y8hxDyQeh/kd+ZOrSqv6LOnwk0a4vmEKrv8AyfFKfoTJ5Ndij1v3McfZ+aXS
ve9r8h/kB5X8vPHe6sRrOqJRlMq0t42G/wAEW/IjxevsBmq1HaE57D0h2+m7NhDeXqP2PUumwzAd
k7FXYq7FXYq7FXyp+SWlDU/zmFwkY+r6aLy9ZG3Cg1hTr3V5lIze66dYq9zzvZ0LzX3W9Q/5yU8v
G+8kwa1CtbnQrlZWPf0JyIpAB/r+mfkDmF2dl4cld/6HYdqYePHfd+n8B88qwZQy7qwqD7HOtBt4
sil2FDsVdirsVfZHk+ySx8qaPaIABDZQKadz6a8j26nfOH1MuLJI+ZfQNLDhxRH9EJvlLe7FXYq7
FXYq7FXYq7FXYq7FXYq07oil3YKo3LE0A+k4qst7m2uY/Ut5UmjrTnGwZaj3FcJBHNAIPJUwJdir
sVdirsVdiqB17UV0zQ9R1JjRbK2muCf+MUZfv8snjjxSA7ywyT4Yk9weLf8AOLPl/hputeYpFHK6
mSytmIPIJCvqSEduLtIv0rmw7SyXIRdZ2ViqJl8Htuq6baappl3pt4pe0vYZLe4UGhMcqlGoe2xz
XRkYkEdHaTiJAg9Xxbe6Te6Hq1/oN8P9L0ud4HahAdQfgkXkAeLr8S+xGdjo8onAU8NrcJxzIKzM
tw3Yq7FXYq+zvLcyT+XdKnjNY5bO3dD7NEpHTOGzipyHmX0HTm8cT/RH3JjlTc7FXYq7FXYq7FXY
q7FXYqhdU1XTdKspL7UrqO0s4hWSeZgij2qe57DvkowMjQFljOYiLJoPD/PH/OSyIz2flC2ElKqd
Tu1PE+8UOx+l/wDgc2uDszrP5Om1Ha3TGPiXiuvebPMvmCczazqU965NQsrn01/1IxRE+SgZtMeK
MPpFOoyZpzNyNqWheY9d0C9W90e9lsrhSCWiYgMB2dfsuPZgRhyY4zFSFox5ZQNxNPpT8qfzv0/z
T6Wka1wsdf8AsxsPhhuT/wAV1Pwyf5Hft4DR6vQnH6o7x+56DR9oDJ6ZbS+96rmvdm7FXYq7FXYq
84/P/XTpn5cXltCSbzV5I7C2Rd2YyNycAe8aMPpzL0ULyX3OF2hOsRHfsyfyB5YTyv5O0rQxT1bS
AfWSDUGeQmSYg7beozU9spzZOOZLfgxcEBFkGVNzwP8A5yS8mNDPZ+drKIlAFs9ZCD9kmkEzUHif
TJJ/kGbjsvU8J4T+PxzdH2vpeIcQ/Hd+r5PGwQQCDUHcHOmeUbxV2KuxV9Qfkj5hj1byJa25at1p
RNpMvfivxRGnh6ZA+YOcl2ph4MxPSW72fZGfjwAdY7fqZ/mudo7FXYq7FXYq7FXYq7pucVeW/mB+
fnlry76tjo/HWNXWqkRt/o0Tf8WSD7RH8qfIkZn6fQSnvL0h1up7Shj2j6pfY+dPNnnbzL5rvvre
tXjT8SfRtx8MMQPaOMbD59T3ObvDgjjFRDoc2onlNyKRZa0OxV2Kto7o6ujFXUhlZTQgjcEEYpfS
n5LfnSdcMXlzzHKq6sqhbG+Y0+sgbcHr/u3wP7Xz66PW6Lg9UeX3PQaDX8fon9XQ9/7Xsuax2zsV
dirsVeUXHHzz+ckEUZ9TQPIg9WZgapJqcp+FdiP7opX2KEftZmj93i/pT+515/e5v6MPver5hOwd
iqF1bS7DVtNudM1CIT2V5G0M8TdCjih+R8COmSjIxNhjOIkKPIvjTzf5b1LyT5nuvL99WWGM+pY3
JFPWtnJ9OQfdRh2YEds6nR6viiHj9dojCZQUc0UgqjA+3fNiJA8nWSiRzX5Ji7FWU/l156u/J+vL
eoplsZwIr+2H7cda8lr+2nVfu75h63SDNCuvRzdDrDgnxdDzD6o0TXNK1zTYtR0u4W5tJh8Lr1B7
qwO6sO4OcjlxSxy4ZCi9rhzRyR4omwjsrbXYq7FXYq7FWFedfzd8meVEkjubsXmpLULp1qRJLyHa
Qj4Y/wDZGvgDmVg0c8nIUO9w9RrseLmbPcHz158/Orzb5sElqr/ozR3qPqFuxq6ntNLsz/LZfbNz
p9FDHvzk6LU6/Jl25R7nn+ZjgvVvyy/IfVvM0cWq6276Zor0aJQALidfFA1Qin+Zhv2BG+a/Va8Q
2jvJ2ek7Olk9Uto/aXveiflf5A0aER2eh2rMOs1xGLiUn/Xl5sPo2zUT1WSXORd3j0eKHKI+9Mjo
nlK5/cmwsJu/p+jC/T2ocr45jqWzw8Z6BIfMf5Ofl7rttJG+kw2NwwPC7sVFu6sf2qIAjf7JTl2P
WZIHnfvaMuhxTHKvc+VvOvlHUfKfmK60W++J4TyhnAossLbpIvzHUdjUds6DBmGSIkHmtRgOKZiU
kR3R1dGKupDKymhBG4IIy1qfSn5NfnZFrKQeXfMkwTWRSOzvn2W58Ec9pf8AiX+t10et0PD6o/T9
z0Gg7Q4/RP6u/v8A2vZc1jtnYq89/N78xn8saZFpWjg3HmvWSLfS7WMc3QyHh6xX5miDu3sDmVpc
HGbP0hw9XqeAcMfrPJOfy28lx+UPKltpjMJtQkJudUualjLdS0MjVO5AoFB8BXrlefLxyvp0bdNh
8OFderKcpb3Yq7FWCfm9+Wtv538u+nDxi1yx5S6XcHYFj9qFz/JJT6DQ+IOTpdQccvJxNXphlj5j
k+Q54Lq1uprS7ia3vLZ2iuIHBV0dDRlIPQgjOkhMSFh5acDE0Vy3VwvRz9O/68tGSQ6tJxxPRd9e
uf5vwGHxZI8GLje3J/bp9Ax8WS+FFNfLfnbzR5bvfrej38ls5p6kezRSAdnjaqt923bKM2OOUVLd
yMGWWI3A09e0P/nKOVY1TXdEDuPtXFlJxB/55S8v+TmavJ2X/NPzdvj7Y/nR+TJ4P+cl/wAv5FBk
t9RhboVaGI/TVZW2yg9mZPJyB2ti7pfj4omT/nI78t0Qsr3kh/lW33/4ZlGR/k3L5Mj2rh8/kx3W
f+co9KRGXRdFnncj4ZLyRIQD4lI/Vr/wQy6HZZ/iPyaMnbEf4Y/N5j5p/On8wPMSvDNf/ULN6g2t
iDCpB7M9TIw9i1Mz8Wixw6WfN12bX5cnM0PJgvXc5luE7FXsX/OPn5c6R5gurrXtXRbm202RYray
ahR5ivLnKp6qopQdCflmt7Q1MoARj1dt2ZpYzJlLcDo9R/NH85dI8nRNp9iEv/MDL8NrX93ACNmn
K/eEG59hvmv0uill3O0XY6zXxxbDeX45vmjzH5381+Y7h5tY1Oe5Dmog5FYV9liWiL92b3HghAek
PPZdRPIfUbSNWKkMpoRuCOoOWtT2H8k/zc1bT9dttA1y8e60i/YQ28s7F2t5m2jo7VPpsfhIOw67
b11uu0YMeKI3DtOz9bKMhGRuJ+xk/wDzlHpNgdK0bV+SrqCTtaBP2pIXQyE/KNk/4bKOy5mzHo5P
bEBwxl15PnfNy6F3TcYq9e8jf85Fa/otqlhr1udZtYwFiuefC5VR2ZiGEn00Puc1ufs6MjcfS7XT
9qSgKkOIfanevf8AOUkjWjpomjejcMpAubuUOEPiIkA5fS30ZVDssDeR2bsna5IqMd/NMvyO8j6v
qmoyfmR5taS41K8BOkLP9oIw4m4K9qr8MQ6cdwKFTlGszADw4cg36HASfEnuTy/X+p7fmudq7FXY
q7FXYq8j/O38nB5oibzBoUap5jt0pNCKKLyNBQKT09RQKKe4+E9qZ+j1fhmj9LrtdovEHFH6vvfM
LLIkjxSo0U0TFJYnBVlZTQqwO4IOb6MgQ83KJBouyTF2KuxV2KuxV2KuxV2KuxV2Kpv5f83+ZvLw
uRomoy2IvFCXHpEDkFrQ7g0IqaMN8ryYYT+oXTbizzx3wmrSqaaWaV5pnaSWQlpJHJZmYmpJJ3JO
WAU1k2txQ7FXdNxiqO1bXda1idJ9Wvp7+aNQkclxI0hVR2BYmgyEMcY8hTOeSUzcjaBybB2KtEgC
p6Ypeo/kr+UM3m29TXdaiZPLNq/7qJgQbyVD9kf8VKftt3+yO/HWa3WcPpjzdroNFxnil9P3vqlE
REVEUKigBVAoABsAAM0b0LeKuxV2KuxV2KuxV5N+cH5I2vmoSa3oIS18yIKyIaLFdhR9l+yyfyv0
7N4rnaXWHHsfpdfrNCMm8fq+98x3tne2F7NYahbvaX1u3Ce2lUq6t7g5voZBIWHnMmMxNFSybW7F
XYq7FXYq7FWU/l9+XWued9TktNOKQwWwV7y8lrwiVyQuw3Zm4niPbtmPqNTHELLk6bSyzGgyDz1+
RPmzyxALy1/3M6eFrNNbRsJIiOvOKrNxp+0K+9Mpwa+GTY+kt+p7OnjFj1B5tmc692KuxV2KuxVd
HHJJIscal5HIVEUEkk9AAMUgPU/IX/OP/mfXZY7rXVfRtJ2LCQUupB1okZ+x836eBzX6jtCENo+o
/Y7LTdmTnvL0x+1i35o+TrLyj5wudGsZ5Li0jjiliaYqZQJEBKuVCqTX2G2ZGlzHJDiPNxtZgGLI
YjkxJmVRUmgy8mnGAt6v+Uf5H33meSDW/MUb2nlwUkgtjVJbzuPdIj3bqR9n+YazV63h9MebttF2
eZeqX0/e+n7W1trS2itbWJILaBFjhhjUKiIooqqo2AAzSkkmy78AAUFXAl2KuxV2KuxV2KuxV2Ks
O/MP8rPLXnizAv4/q2pxLxtNUhA9aPuFbp6iV/Zb3oQd8vwaiWM7cnG1GljlG/PvfL3nr8tfNnkm
5K6rb+tpzNxt9VgBaB69Axp8D/5LfRUb5vcGrjkHm89qdFPGfJiwIIqNxmW4beKHYq7FXYq9C/J3
8zk8katcreQtPpOpemt36f8AeRtGW4SKD1oHbkvf6Mw9ZpfFG3MOfodX4Mjf0l9UaF5h0TXrBL/R
7yK9tX/biapU/wArr9pW9mFc5/JjlA1IU9JjyxmLibCR+Y/yq8g+YZHm1HSIfrT7tdQVglLH9pmi
K8z/AK1ctx6vJDkWnLo8U+Y3YRe/84w+TpW5WepX9sD+y5ilA+XwIfxzLj2pPqA4cuyMfQlLf+hW
LD/qYpf+kVf+qmT/AJVP837Wv+Rx/O+xfF/zizpQesuvzungluin7y7fqwHtU/zUjseP877E90z/
AJxt/Ly1YNdNe6gR1SaYIh/5ErE3/DZVLtLKeVBuh2ViHOyzKy0DyH5Msmu7e0sdHt4xR7x+CNQ9
mmk+M/ItmNLJkymiTJy44sWIWAIvMfPv/OSNhbxyWPlCL6zcmqnVJ1Kwp7xRt8Tn3ag9jmdp+zSd
5/J12p7VA2x/N4NXzB5n11liSfV9av3LMFBkkdj1Jp0AH0AeAzamUcce4B1AhPJLvJe+fll/zjtZ
6c0Wr+chHfagKPDpS0e2hPX96ekrDw+x/rZp9TrzLaPLvd3pezhHefPue3AU2HTNa7V2KuxV2Kux
V2KuxV2KuxV2KuxVTubW2ureS2uoknt5lKSwyqHR1OxVlaoIPvhBI3CCARReM+d/+caNE1BpL3yp
c/oi8b4jYzcns2O32SOUkXc/tDsAM2GDtCUdpbus1HZkZbx2eFeaPI/m/wAqy8Ne0yW1iJ4pdqPU
t3J6cZU5JX2rX2zbYtTCfIumzaSePmEjVlYVBrl4LjEU3hQ7FXYqjdJ1rV9Huhd6VezWNyP92wSN
GxHgeJFR7HIzhGQoi2cMkom4mnoej/8AORf5i2CBLp7XU1G3K5h4vT/WgMX3kHMKfZ2I8rDnw7Uy
x50WS23/ADlPqCgfWfLsUp/a9O5aOvy5RyZQeyh0l9jkDtg9Y/art/zlU3E8fLADU2Jvqivy+rjB
/JX9L7P2p/ln+j9v7EFcf85Sa4w/0bQraM06ySySb/7ER5IdlR6yLE9sS6RDH9X/AOci/wAxr5GS
3ltdNU7crWGrU/1pzN94y6HZ2Ic7LRPtTNLlQ9zA7rVPM/mnU0SWa81zUpKiGIGS4k8SEUcqD2UZ
kgwxjagHEIyZTvZL0zyZ/wA42eZtUMd15nuBo1iaE2cRWW7ddjQkVjjqD1JYjuuYGbtEDaO7stP2
XI7y2+9775S8jeV/KVj9U0KxS2DAevOfjmlI7ySNVm8adB2AzU5M0pm5F3OLBHGKiE+yttdirsVd
irsVdirsVdirsVdirsVdirsVdiq2WKKaJ4pUWSKRSkkbgMrKwoQQdiCMQVIt555m/IL8t9cZ5UsW
0m7c1M+nN6Ir/wAYiGhp8kB98y8etyR624eXQYp9K9zzPW/+cXPMcBLaHrVtfRgE+leI9u9R0UFP
WVj7njmbDtMdQ6/J2Sf4SwXVPye/NHTAGuPL08yE0DWjJdV/2MLSMPpGZcNdjPVwp9n5Y9P0sav9
I1vTnKajpl3ZOOq3EEkRHTs4Hjl8c0TyLjywTjzCB9eMGhNCOxByfGGHAXfWIv5vwOPGF4CrW8N1
cuEtreadz0WKNnJr7AYDkASMUiyHT/y1/MXUZEjtfLWofvKcHnha3jNeh9SYIlPeuUS1mMdQ3x0W
U9Cy/Rv+cbfzGvqNfvZ6THUBlll9aWniqwiRD9LjMafaUBy3cvH2VM89nonl7/nGHyfZMsut31zr
MineIf6LAR7pGWk+6TMPJ2jM8tnPxdmY489/sepaH5a8v6DbfVdG0+CwhIAZYI1Qtx2Bdh8Tn3Yk
5hTySlzNufDHGAqIpMsgzdirsVdirsVdirsVdir/AP/Zimage/svg+xml755.000000826.000000Points1FalseFalseCyanMagentaYellowBlackDefault Swatch Group0</metadata>
  <g id="svg_12"/>
  <g id="svg_13"/>
  <g id="svg_14"/>
  <g id="svg_15"/>
  <g id="svg_16"/>
  <g id="svg_17"/>
  <g id="svg_18"/>
  <g id="svg_19"/>
  <g id="svg_20"/>
  <g id="svg_21"/>
  <g id="svg_22"/>
  <g id="svg_23"/>
  <g id="svg_24"/>
  <g id="svg_25"/>
  <g id="svg_26"/>
  <g stroke="null" transform="matrix(0.49770241360539774,0,0,0.522954044365086,-30.473228370205106,-39.20291461467059) " id="svg_56"/>
  <g stroke="null" transform="matrix(0.49770241360539774,0,0,0.522954044365086,-30.473228370205106,-39.20291461467059) " id="svg_57"/>
  <g stroke="null" transform="matrix(0.49770241360539774,0,0,0.522954044365086,-30.473228370205106,-39.20291461467059) " id="svg_58"/>
  <g stroke="null" transform="matrix(0.49770241360539774,0,0,0.522954044365086,-30.473228370205106,-39.20291461467059) " id="svg_59"/>
  <g stroke="null" transform="matrix(0.49770241360539774,0,0,0.522954044365086,-30.473228370205106,-39.20291461467059) " id="svg_60"/>
  <g stroke="null" transform="matrix(0.49770241360539774,0,0,0.522954044365086,-30.473228370205106,-39.20291461467059) " id="svg_61"/>
  <g stroke="null" transform="matrix(0.49770241360539774,0,0,0.522954044365086,-30.473228370205106,-39.20291461467059) " id="svg_62"/>
  <g stroke="null" transform="matrix(0.49770241360539774,0,0,0.522954044365086,-30.473228370205106,-39.20291461467059) " id="svg_63"/>
  <g stroke="null" transform="matrix(0.49770241360539774,0,0,0.522954044365086,-30.473228370205106,-39.20291461467059) " id="svg_64"/>
  <g stroke="null" transform="matrix(0.49770241360539774,0,0,0.522954044365086,-30.473228370205106,-39.20291461467059) " id="svg_65"/>
  <g stroke="null" transform="matrix(0.49770241360539774,0,0,0.522954044365086,-30.473228370205106,-39.20291461467059) " id="svg_66"/>
  <g stroke="null" transform="matrix(0.49770241360539774,0,0,0.522954044365086,-30.473228370205106,-39.20291461467059) " id="svg_67"/>
  <g stroke="null" transform="matrix(0.49770241360539774,0,0,0.522954044365086,-30.473228370205106,-39.20291461467059) " id="svg_68"/>
  <g stroke="null" transform="matrix(0.49770241360539774,0,0,0.522954044365086,-30.473228370205106,-39.20291461467059) " id="svg_69"/>
  <g stroke="null" transform="matrix(0.49770241360539774,0,0,0.522954044365086,-30.473228370205106,-39.20291461467059) " id="svg_70"/>
  <g stroke="null" id="svg_74">
   <g id="svg_77">
    <path stroke="null" id="svg_36" d="m438.7435,253.99325c0.7671,2.22826 0.65751,3.36409 0.65751,3.84881s-0.27762,1.79418 -1.1543,2.4453c-0.3799,0.27492 -0.49679,0.49195 -0.49679,0.5426c0,0.21704 0.49679,0.3762 0.49679,0.86815c0,0.59324 -0.27762,1.79418 -3.17798,4.66632s-7.07191,5.42596 -10.30103,7.0031s-4.76331,1.46139 -5.20165,0.70176s0.16073,-2.4453 2.19171,-4.66632s8.43808,-5.42596 8.43808,-5.42596l7.99974,-5.53448l0.43834,-2.11251" fill="#e4f4f9"/>
    <path stroke="null" id="svg_37" d="m438.7435,253.93538c-0.49679,3.58113 -1.59264,4.66632 -3.06839,5.80216c-2.46932,1.84483 -4.8802,2.98066 -5.42083,3.25557c-1.42461,0.70899 -6.57513,3.53049 -9.26362,7.59634c-0.81824,1.24435 0,1.73631 0.16073,1.84483s2.03098,0.32556 6.0272,-2.06186s5.75689,-3.79094 8.00704,-6.12048c1.20544,-1.24435 1.37347,-1.95334 1.37347,-2.2789c0,-0.3762 -0.27762,-0.5426 -0.71596,-0.65111c-0.21917,-0.05788 -0.27762,-0.15916 0,-0.32556s1.4173,-0.70899 1.69492,-0.92603s1.59264,-1.08519 1.64378,-2.49594s-0.05114,-2.38742 -0.43834,-3.63901l0,0z" fill="#FFFFFF"/>
    <path stroke="null" id="svg_31" d="m452.89462,263.38378c-2.90767,-1.79418 -5.64,-2.49594 -8.38693,-4.2829c-1.69493,-1.14307 -4.05467,-3.84881 -6.0272,-6.18559c-0.3799,3.74752 -1.53419,5.26679 -2.84923,6.35198c-2.79077,2.17039 -4.54414,2.8215 -6.95502,4.12373c-2.03098,1.02731 -13.04065,7.53847 -13.04065,21.53743s11.89365,24.3083 25.09506,24.3083s24.65671,-9.49182 24.65671,-23.87422s-10.73937,-20.89355 -12.49274,-21.97873z" fill="#b0d3f0"/>
    <path stroke="null" id="svg_32" d="m448.43815,297.07536c0.87668,0 1.81181,0.05788 2.46932,0.49195s1.03741,1.41075 1.25658,1.95334s0,0.86815 -0.43834,1.08519c-0.3799,0.21704 -0.43834,0.10852 -0.81824,-0.59324s-0.71596,-1.41075 -2.63005,-1.41075s-2.52046,0.65111 -3.44829,1.41075s-1.25658,1.02731 -1.59264,0.59324s-0.21917,-0.86815 0.3799,-1.41075s1.59264,-1.41075 2.52046,-1.79418s1.42461,-0.32556 2.30129,-0.32556l0,0z" fill="#FFFFFF"/>
    <path stroke="null" id="svg_33" d="m439.226,303.26095c1.09585,0.86815 2.73964,1.57715 6.24637,1.57715s5.96875,-0.98391 7.06461,-1.79418c0.49679,-0.3762 0.71596,-0.05788 0.7671,0.15916s0.16073,0.5426 -0.21917,0.92603c-0.27762,0.27492 -2.79078,2.01122 -5.75689,2.2789s-6.95502,0.43408 -9.3659,-1.73631c-0.3799,-0.3762 -0.27762,-0.92603 0,-1.14307s0.49679,-0.3762 0.81824,-0.3762s0.27762,0 0.44565,0.10852l0,0z" fill="#FFFFFF"/>
    <path stroke="null" id="svg_34" d="m425.922,299.13722c4.16425,-0.05788 4.93134,-0.75963 8.60611,-2.38742c19.83496,-8.79005 23.50972,-16.82047 24.21838,-18.66529s1.75337,-4.83272 0.65751,-8.13894c-0.21186,-0.63665 -0.36528,-1.1503 -0.47487,-1.56268c-2.63736,-2.91555 -5.25279,-4.5144 -6.04181,-4.99912c-2.84922,-1.79418 -5.6473,-2.49594 -8.38694,-4.28289c-1.69492,-1.08519 -4.05466,-3.84881 -6.0272,-6.18559c-0.3799,3.74753 -1.47575,5.31744 -2.84922,6.35199c-2.79078,2.17038 -4.54414,2.8215 -6.95502,4.12373c-2.03098,1.07796 -13.04797,7.53123 -13.04797,21.5302c0,4.47099 1.21275,8.56578 3.29487,12.06733l0.54062,-0.0217c1.14699,1.02731 2.95881,2.22826 6.46554,2.17038z" fill="#b0d3f0"/>
    <path stroke="null" id="svg_35" d="m452.88002,263.38378c-2.84922,-1.79418 -5.64,-2.49594 -8.38694,-4.28289c-1.69492,-1.08519 -4.05466,-3.84881 -6.0272,-6.18559c-0.3799,3.74753 -1.47575,5.31744 -2.84922,6.35199c-2.79078,2.17038 -4.54414,2.8215 -6.95502,4.12373c-2.02368,1.07796 -13.04066,7.53123 -13.04066,21.5302c0,4.47099 1.21275,8.56578 3.29487,12.06733c4.43456,7.46612 12.81419,12.24096 21.80019,12.24096c13.2087,0 24.65672,-9.49181 24.65672,-23.87421c0,-7.89296 -3.23642,-13.4202 -6.45093,-16.9724c-2.63736,-2.92278 -5.25279,-4.5144 -6.04181,-4.99912zm6.66279,6.34475c3.5944,4.45652 5.42083,9.70885 5.42083,15.62676c0,3.42921 -0.65751,6.67031 -1.95793,9.6365c-1.23466,2.80703 -3.00995,5.29573 -5.28202,7.40101c-4.493,4.15267 -10.52751,6.4388 -17.00035,6.4388c-3.19989,0 -6.34134,-0.60771 -9.33668,-1.80142c-2.94419,-1.17201 -5.58886,-2.85044 -7.87554,-4.99188c-4.82906,-4.5144 -7.48103,-10.59147 -7.48103,-17.11709c0,-5.80939 1.90679,-10.9749 5.66191,-15.35184c2.87114,-3.34239 5.96875,-5.19445 7.15958,-5.8311c0.58446,-0.31109 1.12508,-0.59324 1.65109,-0.86092c1.65109,-0.83921 3.21451,-1.63502 5.36238,-3.29898c1.14699,-0.86092 2.36705,-2.22826 2.88575,-5.69364c1.81181,2.13421 3.90855,4.52887 5.5158,5.55618c1.42461,0.93326 2.88575,1.58438 4.29575,2.21379c1.33694,0.59324 2.71772,1.21541 4.08388,2.07633c0,0 0.05114,0.02894 0.05114,0.02894c4.01083,2.467 6.14409,5.10763 6.84544,5.96855z" fill="#b0d3f0"/>
    <path stroke="null" id="svg_38" d="m426.41879,293.38571c0.05845,-4.23225 4.05466,-8.18958 9.09559,-8.24746c6.4144,-0.05788 10.84896,6.29411 14.08538,6.23623c2.73964,-0.05788 7.99974,-5.36808 10.57865,-5.36808c2.73964,0 3.50673,2.8215 3.50673,4.49993s-0.54793,4.71697 -1.86295,6.61967s-2.13326,2.60446 -3.66746,2.49594c-1.97254,-0.15916 -5.91761,-6.23623 -8.43808,-6.35199c-3.17798,-0.10852 -10.08186,6.56903 -15.50268,6.56903c-3.28756,0 -4.27383,-0.49195 -5.36969,-1.19371c-1.6657,-1.13583 -2.48394,-2.87214 -2.42549,-5.25956l0,0z" fill="#FFFFFF"/>
   </g>
   <g stroke="null" id="svg_78">
    <path stroke="null" id="svg_45" fill="#B0D3F0" d="m409.26244,198.79189l-121.62984,-126.79556c-6.31827,-6.54413 -6.31827,-17.17865 0,-23.72278l10.2675,-10.63453c6.31827,-6.54413 16.58577,-6.54413 22.90405,0l121.62984,125.97765c6.31827,6.54413 6.31827,17.17865 0,23.72278l-10.2675,10.63453c-5.52859,7.36203 -16.58577,7.36203 -22.90405,0.81791"/>
    <path stroke="null" id="svg_46" fill="#E4F4F9" d="m52.27138,429.47814l11.05718,11.45244c27.64296,28.63109 73.45188,28.63109 101.09484,0l237.7311,-245.41032c1.57936,-1.63582 1.57936,-3.27249 0,-4.0904l-107.41394,-112.0715c-0.78968,-0.81791 -3.15955,-0.81791 -3.94923,0l-238.51994,247.047c-27.64296,28.63109 -27.64296,74.44169 0,103.07278"/>
    <g stroke="null" transform="matrix(0.8329955384150192,0,0,0.8627720065162714,-65.56202720037498,-78.33412537902709) " id="svg_47">
     <path stroke="null" id="svg_48" fill="#90BAE1" d="m457.19042,297.50017c-2.844,0 -4.741,-0.948 -6.637,-2.844l-40.77,-40.77c-3.793,-3.793 -3.793,-9.481 0,-13.274c3.793,-3.793 9.481,-3.793 13.274,0l39.822,39.822c3.793,3.793 3.793,9.481 0,13.274c-0.948,2.844 -3.792,3.792 -5.689,3.792z"/>
     <path stroke="null" id="svg_49" fill="#90BAE1" d="m409.78342,304.13717c-2.844,0 -4.741,-0.948 -6.637,-2.844l-19.911,-19.911c-3.793,-3.793 -3.793,-9.481 0,-13.274s9.481,-3.793 13.274,0l19.911,19.911c3.793,3.793 3.793,9.481 0,13.274c-1.896,1.896 -3.793,2.844 -6.637,2.844z"/>
     <path stroke="null" id="svg_50" fill="#90BAE1" d="m403.14642,350.59717c-2.844,0 -4.741,-0.948 -6.637,-2.844l-39.822,-39.822c-3.793,-3.793 -3.793,-9.481 0,-13.274s9.481,-3.793 13.274,0l39.822,39.822c3.793,3.793 3.793,9.481 0,13.274c-1.896,1.896 -3.793,2.844 -6.637,2.844z"/>
     <path stroke="null" id="svg_51" fill="#90BAE1" d="m356.68742,357.23417c-2.844,0 -4.741,-0.948 -6.637,-2.844l-19.911,-19.911c-3.793,-3.793 -3.793,-9.481 0,-13.274s9.481,-3.793 13.274,0l19.911,19.911c3.793,3.793 3.793,9.481 0,13.274c-1.897,1.896 -4.741,2.844 -6.637,2.844z"/>
     <path stroke="null" id="svg_52" fill="#90BAE1" d="m350.04942,404.64117c-2.844,0 -4.741,-0.948 -6.637,-2.844l-39.822,-39.822c-3.793,-3.793 -3.793,-9.481 0,-13.274s9.481,-3.793 13.274,0l39.822,39.822c3.793,3.793 3.793,9.481 0,13.274c-1.896,1.896 -4.74,2.844 -6.637,2.844z"/>
    </g>
    <path stroke="null" id="svg_54" fill="#B0D3F0" d="m70.43651,307.59084l-18.16513,18.81447c-27.64296,28.63109 -27.64296,74.44169 0,103.07278l11.05718,11.45244c27.64296,28.63109 73.45188,28.63109 101.09484,0l129.52747,-133.33969l-223.51436,0z"/>
   </g>
  </g>
 </g>
</svg>